<svg xmlns="http://www.w3.org/2000/svg" viewBox="0 0 1600 700"><rect width="1600" height="700" fill="#92765b"/><path fill="#53665b" d="M0 430 220 300l160 95 210-180 230 170 220-120 250 155 310-180v460H0z"/><path fill="#35483e" d="M0 500 250 370l210 120 190-95 270 120 220-150 240 130 220-120v325H0z"/><g fill="#d6b084"><path d="M250 430h170v150H250z"/><path d="m220 430 115-90 115 90z"/><path d="M800 370h210v190H800z"/><path d="m760 370 145-120 145 120z"/><path d="M1180 450h150v120h-150z"/><path d="m1150 450 105-80 105 80z"/></g><circle cx="1280" cy="130" r="75" fill="#e8c89c" opacity=".85"/><path fill="none" stroke="#d9b28b" stroke-width="6" d="M0 585c260-75 430 85 700 0s490-70 900 0"/></svg>
